<svg width="176" height="61" viewBox="0 0 176 61" fill="none" xmlns="http://www.w3.org/2000/svg">
<path d="M29.68 40.24C28.352 40.24 27.12 40.072 25.984 39.736C24.848 39.384 23.888 38.912 23.104 38.32L24.04 35.896C24.824 36.456 25.68 36.888 26.608 37.192C27.552 37.496 28.576 37.648 29.68 37.648C30.944 37.648 31.864 37.44 32.44 37.024C33.016 36.592 33.304 36.04 33.304 35.368C33.304 34.808 33.096 34.368 32.68 34.048C32.28 33.728 31.584 33.464 30.592 33.256L27.952 32.704C24.944 32.064 23.44 30.52 23.44 28.072C23.44 27.016 23.72 26.096 24.28 25.312C24.84 24.528 25.616 23.92 26.608 23.488C27.6 23.056 28.744 22.84 30.04 22.84C31.192 22.84 32.272 23.016 33.28 23.368C34.288 23.704 35.128 24.184 35.8 24.808L34.864 27.112C33.536 25.992 31.92 25.432 30.016 25.432C28.912 25.432 28.048 25.664 27.424 26.128C26.8 26.592 26.488 27.2 26.488 27.952C26.488 28.528 26.68 28.992 27.064 29.344C27.448 29.68 28.104 29.944 29.032 30.136L31.648 30.688C33.232 31.024 34.408 31.552 35.176 32.272C35.96 32.992 36.352 33.952 36.352 35.152C36.352 36.16 36.08 37.048 35.536 37.816C34.992 38.584 34.216 39.184 33.208 39.616C32.216 40.032 31.04 40.24 29.68 40.24ZM41.7531 40L37.1211 28.264H40.1931L43.1931 36.52L46.2171 28.264H48.3291L51.3531 36.568L54.3531 28.264H57.2571L52.6491 40H50.0331L47.1771 32.44L44.3691 40H41.7531ZM62.6037 40.24C61.7557 40.24 60.9957 40.08 60.3237 39.76C59.6677 39.424 59.1477 38.976 58.7637 38.416C58.3957 37.856 58.2117 37.224 58.2117 36.52C58.2117 35.656 58.4357 34.976 58.8837 34.48C59.3317 33.968 60.0597 33.6 61.0677 33.376C62.0757 33.152 63.4277 33.04 65.1237 33.04H65.9637V32.536C65.9637 31.736 65.7877 31.16 65.4357 30.808C65.0837 30.456 64.4917 30.28 63.6597 30.28C63.0037 30.28 62.3317 30.384 61.6437 30.592C60.9557 30.784 60.2597 31.088 59.5557 31.504L58.6917 29.464C59.1077 29.176 59.5957 28.928 60.1557 28.72C60.7317 28.496 61.3317 28.328 61.9557 28.216C62.5957 28.088 63.1957 28.024 63.7557 28.024C65.4677 28.024 66.7397 28.424 67.5717 29.224C68.4037 30.008 68.8197 31.232 68.8197 32.896V40H66.0117V38.128C65.7397 38.784 65.3077 39.304 64.7157 39.688C64.1237 40.056 63.4197 40.24 62.6037 40.24ZM63.2277 38.176C64.0117 38.176 64.6597 37.904 65.1717 37.36C65.6997 36.816 65.9637 36.128 65.9637 35.296V34.768H65.1477C63.6437 34.768 62.5957 34.888 62.0037 35.128C61.4277 35.352 61.1397 35.768 61.1397 36.376C61.1397 36.904 61.3237 37.336 61.6917 37.672C62.0597 38.008 62.5717 38.176 63.2277 38.176ZM71.8647 44.32V28.264H74.7927V30.136C75.1287 29.496 75.6327 28.984 76.3047 28.6C76.9927 28.216 77.7687 28.024 78.6327 28.024C79.6567 28.024 80.5527 28.272 81.3207 28.768C82.1047 29.264 82.7127 29.968 83.1447 30.88C83.5767 31.776 83.7927 32.856 83.7927 34.12C83.7927 35.368 83.5767 36.456 83.1447 37.384C82.7127 38.296 82.1127 39 81.3447 39.496C80.5767 39.992 79.6727 40.24 78.6327 40.24C77.8007 40.24 77.0487 40.064 76.3767 39.712C75.7207 39.344 75.2167 38.856 74.8647 38.248V44.32H71.8647ZM77.7927 37.96C78.6887 37.96 79.4087 37.64 79.9527 37C80.4967 36.344 80.7687 35.384 80.7687 34.12C80.7687 32.84 80.4967 31.888 79.9527 31.264C79.4087 30.624 78.6887 30.304 77.7927 30.304C76.8967 30.304 76.1767 30.624 75.6327 31.264C75.0887 31.888 74.8167 32.84 74.8167 34.12C74.8167 35.384 75.0887 36.344 75.6327 37C76.1767 37.64 76.8967 37.96 77.7927 37.96Z" fill="#D7A825"/>
<path d="M94.4153 40.24C92.6553 40.24 91.1433 39.888 89.8793 39.184C88.6313 38.464 87.6713 37.456 86.9993 36.16C86.3273 34.848 85.9913 33.304 85.9913 31.528C85.9913 29.752 86.3273 28.216 86.9993 26.92C87.6713 25.624 88.6313 24.624 89.8793 23.92C91.1433 23.2 92.6553 22.84 94.4153 22.84C95.5513 22.84 96.6233 23.016 97.6313 23.368C98.6553 23.72 99.4953 24.224 100.151 24.88L99.1433 27.328C98.4233 26.72 97.6873 26.28 96.9353 26.008C96.1833 25.72 95.3753 25.576 94.5113 25.576C92.7993 25.576 91.4953 26.096 90.5993 27.136C89.7033 28.16 89.2553 29.624 89.2553 31.528C89.2553 33.432 89.7033 34.904 90.5993 35.944C91.4953 36.984 92.7993 37.504 94.5113 37.504C95.3753 37.504 96.1833 37.368 96.9353 37.096C97.6873 36.808 98.4233 36.36 99.1433 35.752L100.151 38.2C99.4953 38.84 98.6553 39.344 97.6313 39.712C96.6233 40.064 95.5513 40.24 94.4153 40.24ZM107.053 40.24C105.837 40.24 104.781 39.992 103.885 39.496C102.989 39 102.293 38.296 101.797 37.384C101.301 36.456 101.053 35.368 101.053 34.12C101.053 32.872 101.301 31.792 101.797 30.88C102.293 29.968 102.989 29.264 103.885 28.768C104.781 28.272 105.837 28.024 107.053 28.024C108.269 28.024 109.325 28.272 110.221 28.768C111.117 29.264 111.813 29.968 112.309 30.88C112.805 31.792 113.053 32.872 113.053 34.12C113.053 35.368 112.805 36.456 112.309 37.384C111.813 38.296 111.117 39 110.221 39.496C109.325 39.992 108.269 40.24 107.053 40.24ZM107.053 37.96C107.949 37.96 108.669 37.64 109.213 37C109.757 36.344 110.029 35.384 110.029 34.12C110.029 32.84 109.757 31.888 109.213 31.264C108.669 30.624 107.949 30.304 107.053 30.304C106.157 30.304 105.437 30.624 104.893 31.264C104.349 31.888 104.077 32.84 104.077 34.12C104.077 35.384 104.349 36.344 104.893 37C105.437 37.64 106.157 37.96 107.053 37.96ZM115.529 40V28.264H118.457V30.088C118.857 29.416 119.393 28.904 120.065 28.552C120.753 28.2 121.521 28.024 122.369 28.024C125.137 28.024 126.521 29.632 126.521 32.848V40H123.521V32.992C123.521 32.08 123.345 31.416 122.993 31C122.657 30.584 122.129 30.376 121.409 30.376C120.529 30.376 119.825 30.656 119.297 31.216C118.785 31.76 118.529 32.488 118.529 33.4V40H115.529ZM129.568 40V28.264H132.496V30.088C132.896 29.416 133.432 28.904 134.104 28.552C134.792 28.2 135.56 28.024 136.408 28.024C139.176 28.024 140.56 29.632 140.56 32.848V40H137.56V32.992C137.56 32.08 137.384 31.416 137.032 31C136.696 30.584 136.168 30.376 135.448 30.376C134.568 30.376 133.864 30.656 133.336 31.216C132.824 31.76 132.568 32.488 132.568 33.4V40H129.568ZM149.391 40.24C148.063 40.24 146.919 39.992 145.959 39.496C144.999 39 144.255 38.296 143.727 37.384C143.215 36.472 142.959 35.392 142.959 34.144C142.959 32.928 143.207 31.864 143.703 30.952C144.215 30.04 144.911 29.328 145.791 28.816C146.687 28.288 147.703 28.024 148.839 28.024C150.503 28.024 151.815 28.552 152.775 29.608C153.751 30.664 154.239 32.104 154.239 33.928V34.816H145.839C146.063 36.912 147.263 37.96 149.439 37.96C150.095 37.96 150.751 37.864 151.407 37.672C152.063 37.464 152.663 37.144 153.207 36.712L154.047 38.728C153.487 39.192 152.783 39.56 151.935 39.832C151.087 40.104 150.239 40.24 149.391 40.24ZM148.959 30.064C148.079 30.064 147.367 30.336 146.823 30.88C146.279 31.424 145.951 32.16 145.839 33.088H151.743C151.679 32.112 151.407 31.368 150.927 30.856C150.463 30.328 149.807 30.064 148.959 30.064ZM162.039 40.24C160.807 40.24 159.735 39.992 158.823 39.496C157.911 38.984 157.207 38.264 156.711 37.336C156.215 36.408 155.967 35.32 155.967 34.072C155.967 32.824 156.215 31.752 156.711 30.856C157.207 29.944 157.911 29.248 158.823 28.768C159.735 28.272 160.807 28.024 162.039 28.024C162.791 28.024 163.535 28.144 164.271 28.384C165.007 28.624 165.615 28.96 166.095 29.392L165.207 31.48C164.791 31.112 164.319 30.832 163.791 30.64C163.279 30.448 162.783 30.352 162.303 30.352C161.263 30.352 160.455 30.68 159.879 31.336C159.319 31.976 159.039 32.896 159.039 34.096C159.039 35.28 159.319 36.216 159.879 36.904C160.455 37.576 161.263 37.912 162.303 37.912C162.767 37.912 163.263 37.816 163.791 37.624C164.319 37.432 164.791 37.144 165.207 36.76L166.095 38.872C165.615 39.288 164.999 39.624 164.247 39.88C163.511 40.12 162.775 40.24 162.039 40.24ZM173.358 40.24C170.254 40.24 168.702 38.704 168.702 35.632V30.52H166.446V28.264H168.702V24.76H171.702V28.264H175.254V30.52H171.702V35.464C171.702 36.232 171.87 36.808 172.206 37.192C172.542 37.576 173.086 37.768 173.838 37.768C174.062 37.768 174.294 37.744 174.534 37.696C174.774 37.632 175.022 37.568 175.278 37.504L175.734 39.712C175.446 39.872 175.078 40 174.63 40.096C174.198 40.192 173.774 40.24 173.358 40.24Z" fill="#037F44"/>
<rect x="3.46484" y="15.9863" width="19.2169" height="7.86992" rx="3.93496" transform="rotate(-43.3631 3.46484 15.9863)" fill="#037F44"/>
<rect x="19.2949" y="15.8701" width="22.6259" height="7.86992" rx="3.93496" transform="rotate(-44.5411 19.2949 15.8701)" fill="#037F44"/>
<rect y="34.6924" width="21.6928" height="7.86992" rx="3.93496" transform="rotate(-44.5411 0 34.6924)" fill="#037F44"/>
<rect x="3.36328" y="46.2227" width="19.2169" height="7.86992" rx="3.93496" transform="rotate(-44.5411 3.36328 46.2227)" fill="#037F44"/>
<rect x="11.0508" y="53.9102" width="19.2169" height="7.86992" rx="3.93496" transform="rotate(-44.5411 11.0508 53.9102)" fill="#037F44"/>
<rect x="23.2031" y="55.2471" width="19.8296" height="7.86992" rx="3.93496" transform="rotate(-44.5411 23.2031 55.2471)" fill="#037F44"/>
<rect x="44.5332" y="19.6299" width="13.4954" height="7.86992" rx="3.93496" transform="rotate(-44.5411 44.5332 19.6299)" fill="#037F44"/>
<rect x="33.1484" y="15.9121" width="18.4687" height="7.86992" rx="3.93496" transform="rotate(-44.5411 33.1484 15.9121)" fill="#037F44"/>
<rect x="41.3164" y="52.4238" width="18.4687" height="7.86992" rx="3.93496" transform="rotate(-44.5411 41.3164 52.4238)" fill="#037F44"/>
</svg>
